<svg xmlns="http://www.w3.org/2000/svg" width="449.97" height="77.825" viewBox="0 0 636 110">
  <metadata><?xpacket begin="﻿" id="W5M0MpCehiHzreSzNTczkc9d"?>
<x:xmpmeta xmlns:x="adobe:ns:meta/" x:xmptk="Adobe XMP Core 5.6-c140 79.160451, 2017/05/06-01:08:21        ">
   <rdf:RDF xmlns:rdf="http://www.w3.org/1999/02/22-rdf-syntax-ns#">
      <rdf:Description rdf:about=""/>
   </rdf:RDF>
</x:xmpmeta>
                                                                                                    
                                                                                                    
                                                                                                    
                                                                                                    
                                                                                                    
                                                                                                    
                                                                                                    
                                                                                                    
                                                                                                    
                                                                                                    
                                                                                                    
                                                                                                    
                                                                                                    
                                                                                                    
                                                                                                    
                                                                                                    
                                                                                                    
                                                                                                    
                                                                                                    
                                                                                                    
                           
<?xpacket end="w"?></metadata>
<defs>
    <style>
      .cls-1 {
        fill: #f9f5ea;
        fill-rule: evenodd;
      }
    </style>
  </defs>
  <path id="形状_1" data-name="形状 1" class="cls-1" d="M10,106.562l10-8.02H614L625,110l7-16.042,4-19.479-8-5.729,1-6.875L632,55l2-9.167-5-14.9-7-12.6-7-6.875-13,6.875-17,5.729-39,2.292-7-12.6-9-6.875L520,13.75l-20,6.875-21,4.583-19,1.146-20-2.292-29-6.875L383,9.167l-7,4.583L363,8.021,353,5.729,341,3.438,326,1.146,316,0h-9L294,2.292,283,4.583,272,9.167,262,12.6l-7,3.437-5-6.875L229,14.9l-21,6.875-21,3.438-22,1.146-20-3.437-25-6.875L103,8.021,94,13.75,86,25.208,47,24.063,30,18.333,17,11.458l-5,6.875L7,26.354,3,37.813v8.021L5,55l2,9.167L0,74.479l2,14.9Z"/>
</svg>
